<svg id="visual" viewBox="0 0 900 600" width="900" height="600" xmlns="http://www.w3.org/2000/svg" xmlns:xlink="http://www.w3.org/1999/xlink" version="1.1"><path d="M0 49L82 109L164 103L245 61L327 43L409 115L491 55L573 43L655 43L736 67L818 85L900 121L900 0L818 0L736 0L655 0L573 0L491 0L409 0L327 0L245 0L164 0L82 0L0 0Z" fill="#e84855"></path><path d="M0 259L82 229L164 289L245 145L327 193L409 295L491 247L573 235L655 193L736 193L818 319L900 361L900 119L818 83L736 65L655 41L573 41L491 53L409 113L327 41L245 59L164 101L82 107L0 47Z" fill="#f7754f"></path><path d="M0 355L82 313L164 367L245 295L327 271L409 415L491 421L573 379L655 325L736 325L818 457L900 409L900 359L818 317L736 191L655 191L573 233L491 245L409 293L327 191L245 143L164 287L82 227L0 257Z" fill="#fe9f53"></path><path d="M0 523L82 529L164 505L245 517L327 511L409 511L491 541L573 523L655 565L736 553L818 565L900 511L900 407L818 455L736 323L655 323L573 377L491 419L409 413L327 269L245 293L164 365L82 311L0 353Z" fill="#ffc765"></path><path d="M0 601L82 601L164 601L245 601L327 601L409 601L491 601L573 601L655 601L736 601L818 601L900 601L900 509L818 563L736 551L655 563L573 521L491 539L409 509L327 509L245 515L164 503L82 527L0 521Z" fill="#ffed84"></path></svg>